# xmcd
#
# Track frame offsets:
#	183
#	27260
#	56723
#	80443
#	104210
#	136495
#	161755
#	189643
#	221393
#	249228
#	274810
#	294478
#
# Disc length: 4119 seconds
#
# Revision: 4
# Processed by: cddbd v1.4b41PL3 Copyright (c) Steve Scherf et al.
# Submitted via: audiograbber 1.80
#
DISCID=b410150c
DTITLE=Various Artist - blue note - CRITIC'S CHOICE
DYEAR=1900
DGENRE=
TTITLE0=Me and My Baby (Benny Green)
TTITLE1=Fort Worth (Joe Lovano)
TTITLE2=Man-talk (Greg Osby)
TTITLE3=On Golden Beams (Jack DeJohnette)
TTITLE4=To Know One (Joey Calderazzo)
TTITLE5=Body and Soul (Rick Margitza)
TTITLE6=The Substance of things Hoped for (Ralph Peterson)
TTITLE7=Capoeira (Don Pullen)
TTITLE8=Twang (John Scofield)
TTITLE9=Our Gang (Geri Allen)
TTITLE10=Airegin (Gonzalo Rubalcaba)
TTITLE11=Deija Eu (Marisa Monte)
EXTD=
EXTT0=
EXTT1=
EXTT2=
EXTT3=
EXTT4=
EXTT5=
EXTT6=
EXTT7=
EXTT8=
EXTT9=
EXTT10=
EXTT11=
PLAYORDER=
